<svg id="Layer_1" data-name="Layer 1" xmlns="http://www.w3.org/2000/svg" viewBox="0 0 136.44 110.29"><defs><style>.cls-1{fill:#00a153;}</style></defs><title>symbol-color-black</title><path class="cls-1" d="M500.71,365.78H394.28a15,15,0,0,0-15,15v95.29l20.66-20.46H500.71a15,15,0,0,0,15-15V380.78A15,15,0,0,0,500.71,365.78ZM411.15,433a4,4,0,0,1-8,0v-42.5a4,4,0,1,1,8,0V433Zm18.6,0a4,4,0,0,1-8,0v-28.1a4,4,0,1,1,8,0V433Zm0.59-40.93a4.34,4.34,0,0,1-4.34,4.34h-0.39a4.34,4.34,0,0,1-4.34-4.34v-0.26a4.34,4.34,0,0,1,4.34-4.34H426a4.34,4.34,0,0,1,4.34,4.34v0.26ZM458.47,436a13.8,13.8,0,0,1-5.88,1.28c-6.91,0-10.56-3.33-10.56-9.64v-19.3h-3.65a2.2,2.2,0,0,1-2.25-2.24,2.45,2.45,0,0,1,.95-1.88l8.85-8.66a2.62,2.62,0,0,1,1.81-.87A2.25,2.25,0,0,1,450,397v4.24h6.4a3.55,3.55,0,0,1,0,7.11H450v18.78c0,2.72,1.35,2.93,3.26,2.93a8.18,8.18,0,0,0,2.34-.33,6,6,0,0,1,1.59-.26,3.41,3.41,0,0,1,3.36,3.36A3.46,3.46,0,0,1,458.47,436ZM483,429.75a16.84,16.84,0,0,0,8.38-1.92,3.42,3.42,0,0,1,1.64-.37,3.55,3.55,0,0,1,3.62,3.55,3.9,3.9,0,0,1-2.21,3.29c-2.79,1.59-5.81,3-12,3-11.25,0-18-6.86-18-18.35,0-13.55,9-18.36,16.65-18.36,11.4,0,16.59,9.07,16.59,17.5a3.85,3.85,0,0,1-4,3.95h-21C473.71,427.1,477.26,429.75,483,429.75Z" transform="translate(-379.28 -365.78)"/><path class="cls-1" d="M481.21,407.65a8.41,8.41,0,0,0-8.52,7.56h17.11A8.46,8.46,0,0,0,481.21,407.65Z" transform="translate(-379.28 -365.78)"/></svg>